<svg xmlns="http://www.w3.org/2000/svg" width="1000" height="1000" viewBox="0 0 1000 1000">
  <metadata><?xpacket begin="﻿" id="W5M0MpCehiHzreSzNTczkc9d"?>
<x:xmpmeta xmlns:x="adobe:ns:meta/" x:xmptk="Adobe XMP Core 5.6-c142 79.160924, 2017/07/13-01:06:39        ">
   <rdf:RDF xmlns:rdf="http://www.w3.org/1999/02/22-rdf-syntax-ns#">
      <rdf:Description rdf:about=""
            xmlns:xmp="http://ns.adobe.com/xap/1.0/">
         <xmp:CreatorTool>Adobe Photoshop CC 2018 (Windows)</xmp:CreatorTool>
      </rdf:Description>
   </rdf:RDF>
</x:xmpmeta>
                                                                                                    
                                                                                                    
                                                                                                    
                                                                                                    
                                                                                                    
                                                                                                    
                                                                                                    
                                                                                                    
                                                                                                    
                                                                                                    
                                                                                                    
                                                                                                    
                                                                                                    
                                                                                                    
                                                                                                    
                                                                                                    
                                                                                                    
                                                                                                    
                                                                                                    
                                                                                                    
                           
<?xpacket end="w"?></metadata>
<defs>
    <style>
      .cls-1 {
        fill: none;
        stroke: #232323;
        stroke-width: 15.67px;
      }

      .cls-1, .cls-3 {
        fill-rule: evenodd;
      }

      .cls-2, .cls-3 {
        fill: #232323;
      }
    </style>
  </defs>
  <path class="cls-1" d="M-2,117H707.208V527.369H-2V117Z"/>
  <path id="Rectangle_1_copy" data-name="Rectangle 1 copy" class="cls-1" d="M307.058,460.6H1000V884H307.058V460.6Z"/>
  <rect class="cls-2" x="307" y="461" width="400" height="67"/>
  <path class="cls-3" d="M469.721,515.97h81.331V797.692H469.721V515.97Z"/>
  <path id="Nex" class="cls-3" d="M124.666,423.98V264.623l106.4,159.357h27.5V221.187h-25.7V380.406l-106.4-159.219h-27.5V423.98h25.7Zm260.876-24.346q-9.673,7.194-23.352,7.193-18.378,0-30.675-12.865T317.836,356.89H427.271q0.137-4.426.138-6.64,0-36.381-18.653-56.439T360.67,273.753q-30.4,0-49.467,20.473t-19.068,57.545q0,35.829,18.861,55.679t51.056,19.85q25.562,0,42.006-12.45t22.522-35l-25.7-3.181Q395.212,392.441,385.542,399.634Zm-53.4-93.927q11.675-11.481,28.81-11.481,18.928,0,30.813,14.386,7.737,9.268,9.4,27.8H319.218Q320.462,317.19,332.137,305.707ZM471.349,423.98L509.9,366.019l8.015,12.312,30.122,45.649h30.537l-54.58-77.742,50.711-69.166H545l-24.733,34.722q-5.114,7.055-11.193,16.184-3.87-6.639-10.225-16.461l-22.522-34.445h-31.09l49.605,70.549L441.227,423.98h30.122Z"/>
  <path id="ask" class="cls-3" d="M676.832,794.694h23.122a50.172,50.172,0,0,1-5.6-15.874q-1.416-8.279-1.415-39.529v-29.88q0-14.94-1.106-20.667a35.47,35.47,0,0,0-6.888-15.251q-4.92-6.038-15.373-10.023t-27.18-3.984q-16.851,0-29.64,4.669T593.2,677.477q-6.765,8.654-9.716,22.721l21.646,2.988q3.566-14.068,11.007-19.609t23.06-5.54q16.725,0,25.212,7.594,6.273,5.6,6.273,19.3,0,1.245-.123,5.851-12.669,4.482-39.479,7.719a156.74,156.74,0,0,0-19.678,3.362,53.5,53.5,0,0,0-15.927,7.345,36.988,36.988,0,0,0-15.8,30.627q0,16.56,11.561,27.2t33.084,10.645a67.7,67.7,0,0,0,24.413-4.358q11.374-4.356,23.675-14.94a47.943,47.943,0,0,0,4.427,16.31h0Zm-6.272-58.142q0,14.817-3.567,22.41a34.7,34.7,0,0,1-14.635,15.5,45.2,45.2,0,0,1-22.753,5.665q-12.914,0-19.616-5.976a19.56,19.56,0,0,1,5.1-32.868q5.655-2.489,19.309-4.482,24.1-3.485,36.158-8.466v8.217Zm64.875,50.423q13.344,10.709,38.8,10.707a67.118,67.118,0,0,0,27.549-5.416q12.175-5.416,18.632-15.314a37.947,37.947,0,0,0,6.457-21.1q0-11.452-5.288-19.173a33.356,33.356,0,0,0-14.574-11.765q-9.288-4.044-32.776-10.4-16.235-4.482-19.555-5.727-5.783-2.363-8.486-5.976a12.452,12.452,0,0,1-2.706-7.843q0-6.846,6.518-11.952t21.769-5.105q12.913,0,19.985,5.727t8.548,15.936l21.646-2.988q-2.092-12.821-7.625-20.48t-17.157-12.139q-11.622-4.482-27-4.482a66.209,66.209,0,0,0-19.124,2.677q-8.919,2.679-14.082,6.536a36.142,36.142,0,0,0-10.885,12.513,34.386,34.386,0,0,0-4,16.371,33.612,33.612,0,0,0,4.858,17.742A32.822,32.822,0,0,0,741.216,727.9q9.408,4.546,33.76,10.769,18.078,4.608,22.629,7.6a13.655,13.655,0,0,1,6.519,11.952q0,8.467-7.38,14.753t-22.629,6.287q-15.128,0-23.552-7.1t-10.27-20.418L718.4,755.227Q722.091,776.269,735.435,786.975Zm140.021,7.719V742.279l15.619-15.189,43.169,67.6h27.3l-54.975-83.167L956.5,662.474H927.848l-52.392,53.784V612.176H853.318V794.694h22.138Z"/>
</svg>
