<svg xmlns="http://www.w3.org/2000/svg" width="100" height="100" viewBox="0 0 100 100">
  <defs>
    <style>
      .cls-1 {
        fill: #1a1a1a;
        fill-rule: evenodd;
      }
    </style>
  </defs>
  <path class="cls-1" d="M0,49.5S20.833,19,50,19s50,30.5,50,30.5S82.79,80,50,80,0,49.5,0,49.5ZM50,74.554c-15.217,0-23.913-10.711-23.913-25.054S35.87,25.536,50,25.536,75,34.069,75,49.5,65.217,74.554,50,74.554Zm0-35.946c7.79,0,11.956,3.994,11.956,10.893S57.79,61.482,50,61.482,39.13,55.128,39.13,49.5,42.21,38.607,50,38.607Z"/>
</svg>
