<svg xmlns="http://www.w3.org/2000/svg" xmlns:xlink="http://www.w3.org/1999/xlink" width="256" height="256" viewBox="0 0 256 256">
  <defs>
    <style>
      .cls-1 {
        fill-rule: evenodd;
        fill: url(#linear-gradient);
      }
    </style>
    <linearGradient id="linear-gradient" x1="163.396" y1="49" x2="92.604" y2="208" gradientUnits="userSpaceOnUse">
      <stop offset="-0.44" stop-color="#5eb9e8"/>
      <stop offset="1.44" stop-color="#74e9d6"/>
    </linearGradient>
  </defs>
  <path class="cls-1" d="M8,155L48,49H213l-20,53h55L208,208H43l20-53H8Zm77,0L72,187H196l24-63H185l-12,31H85ZM46,106l2-7h62l13-36h8L118,99h59l-3,7H115l-13,34H94l13-34H46Zm64,32,15-30h7l-4,30h-5v-5h-6l-2,5h-5Zm9-9h5l2-14Zm12,0h5s-1.867,4.976,1,5,4.133-3.357,4-5-4.867-5.691-5-10,3.467-10.857,9-11a5.587,5.587,0,0,1,6,5l-1,3h-4s1.133-3.857-1-4a3.944,3.944,0,0,0-4,4c-0.133,2.357.3,2.476,2,5s4.633,6.809,2,11-5.2,6.143-9,6-4.367-1.524-5-3S131,129,131,129Zm15,9,10-30h4l-4,12,11-12h4l-11,14,1,16h-5l-1-13-4,13h-5ZM53,97h4l8-22L64,97h4L79,66H75L68,84l2-18H65Zm19,0L84,66H96l-2,5H86l-3,8h6l-2,5H81l-3,8h8l-2,5H72Zm15-1L98,81V66h5V78l8-12h5L104,82V97H99V85L91,97H86Z"/>
</svg>
