<svg id="svg" xmlns="http://www.w3.org/2000/svg" xmlns:xlink="http://www.w3.org/1999/xlink" width="400" height="400" viewBox="0, 0, 400,400"><g id="svgg"><path id="path0" d="M221.700 158.099 L 154.401 225.399 127.299 198.299 C 112.394 183.395,100.038 171.200,99.843 171.200 C 99.648 171.200,90.153 180.532,78.743 191.939 L 57.997 212.677 106.058 260.739 C 132.492 287.172,154.246 308.800,154.400 308.800 C 154.646 308.800,329.277 134.353,330.472 132.913 C 330.882 132.419,290.096 90.800,289.201 90.800 C 289.090 90.800,258.715 121.085,221.700 158.099 " stroke="none" fill="#fbfbfb" fill-rule="evenodd"></path><path id="path1" d="M221.597 157.400 C 184.526 194.470,154.285 224.800,154.396 224.800 C 154.506 224.800,184.929 194.470,222.001 157.400 C 259.074 120.330,289.314 90.000,289.203 90.000 C 289.091 90.001,258.669 120.331,221.597 157.400 M330.595 131.520 L 331.360 132.440 242.980 220.920 L 154.600 309.400 243.195 220.905 L 331.789 132.411 330.809 131.505 L 329.830 130.600 330.595 131.520 " stroke="none" fill="#1c9c6c" fill-rule="evenodd"></path><path id="path2" d="M221.700 157.699 L 154.401 224.999 127.299 197.899 C 112.394 182.995,100.018 170.800,99.797 170.800 C 99.577 170.800,90.038 180.192,78.599 191.672 C 67.159 203.152,58.091 212.330,58.446 212.068 C 58.802 211.806,68.180 202.503,79.288 191.396 C 90.396 180.288,99.644 171.200,99.841 171.200 C 100.037 171.200,112.393 183.395,127.299 198.299 L 154.401 225.398 221.800 158.000 L 289.200 90.601 310.072 111.473 C 329.303 130.704,330.899 132.402,330.372 133.072 C 329.849 133.738,329.860 133.753,330.500 133.251 C 330.885 132.949,331.200 132.555,331.200 132.376 C 331.200 131.977,289.680 90.400,289.282 90.400 C 289.127 90.400,258.715 120.685,221.700 157.699 M58.000 212.962 C 58.000 213.388,153.908 309.200,154.334 309.200 C 154.536 309.200,154.949 308.885,155.251 308.500 C 155.749 307.866,155.734 307.851,155.100 308.349 C 154.200 309.055,160.144 314.828,105.656 260.337 C 79.445 234.125,58.000 212.806,58.000 212.962 " stroke="none" fill="#94ccb4" fill-rule="evenodd"></path><path id="path3" d="M184.000 11.459 C 182.570 11.543,181.040 11.771,180.600 11.965 C 180.160 12.159,176.959 12.609,173.487 12.964 C 170.014 13.319,166.864 13.774,166.487 13.974 C 166.109 14.175,163.920 14.630,161.622 14.986 C 159.324 15.341,157.254 15.782,157.022 15.966 C 156.790 16.149,155.700 16.427,154.600 16.584 C 153.500 16.741,151.610 17.199,150.400 17.601 C 149.190 18.004,147.030 18.635,145.600 19.003 C 144.170 19.370,142.820 19.806,142.600 19.970 C 142.380 20.134,140.940 20.596,139.400 20.998 C 137.860 21.399,136.510 21.843,136.400 21.983 C 136.290 22.124,135.390 22.474,134.400 22.761 C 133.410 23.047,131.845 23.624,130.922 24.041 C 129.999 24.458,129.111 24.800,128.948 24.800 C 128.786 24.800,127.831 25.179,126.826 25.643 C 125.822 26.107,124.010 26.935,122.800 27.482 C 119.133 29.143,110.327 33.555,108.200 34.798 C 107.100 35.441,105.570 36.288,104.800 36.681 C 104.030 37.074,102.285 38.162,100.923 39.098 C 99.561 40.034,98.290 40.800,98.098 40.800 C 97.907 40.800,97.392 41.115,96.954 41.500 C 96.515 41.885,95.860 42.380,95.499 42.600 C 94.150 43.421,86.077 49.114,85.200 49.864 C 84.870 50.146,82.716 51.923,80.414 53.813 C 72.653 60.185,65.975 66.531,60.200 73.023 C 58.660 74.755,56.725 76.918,55.900 77.830 C 55.075 78.743,54.400 79.596,54.400 79.727 C 54.400 79.857,53.995 80.396,53.500 80.925 C 53.005 81.453,52.240 82.368,51.800 82.958 C 51.360 83.548,50.610 84.484,50.133 85.038 C 49.656 85.592,48.576 87.070,47.733 88.323 C 46.890 89.575,45.975 90.744,45.700 90.920 C 45.425 91.096,45.200 91.467,45.200 91.744 C 45.200 92.022,44.880 92.598,44.488 93.025 C 43.622 93.968,41.200 97.546,41.200 97.882 C 41.200 98.016,40.777 98.681,40.261 99.362 C 39.745 100.043,38.530 102.008,37.561 103.729 C 36.592 105.451,35.323 107.701,34.740 108.729 C 33.024 111.757,28.888 120.117,28.579 121.181 C 28.423 121.721,28.085 122.372,27.829 122.628 C 27.573 122.885,27.109 123.883,26.798 124.847 C 26.488 125.811,26.135 126.690,26.013 126.800 C 25.892 126.910,25.459 127.990,25.051 129.200 C 24.642 130.410,23.980 132.120,23.578 133.000 C 23.176 133.880,22.722 135.140,22.568 135.800 C 22.415 136.460,22.154 137.180,21.988 137.400 C 21.822 137.620,21.369 138.970,20.980 140.400 C 20.592 141.830,20.145 143.180,19.986 143.400 C 19.827 143.620,19.368 145.240,18.965 147.000 C 18.562 148.760,18.102 150.294,17.941 150.408 C 17.780 150.523,17.343 152.323,16.969 154.408 C 16.595 156.494,16.149 158.380,15.979 158.600 C 15.809 158.820,15.372 161.070,15.008 163.600 C 14.645 166.130,14.194 168.489,14.006 168.843 C 13.818 169.196,13.384 172.436,13.041 176.043 C 12.698 179.649,12.301 183.410,12.159 184.400 C 11.692 187.649,11.545 212.505,11.989 212.949 C 12.215 213.175,12.400 214.313,12.400 215.478 C 12.400 218.450,13.565 229.235,13.990 230.200 C 14.184 230.640,14.644 233.070,15.012 235.600 C 15.381 238.130,15.823 240.380,15.995 240.600 C 16.166 240.820,16.534 242.350,16.811 244.000 C 17.088 245.650,17.543 247.540,17.820 248.200 C 18.098 248.860,18.640 250.750,19.024 252.400 C 19.408 254.050,19.847 255.490,20.000 255.600 C 20.153 255.710,20.595 257.105,20.982 258.700 C 21.369 260.295,21.847 261.600,22.043 261.600 C 22.239 261.600,22.400 261.849,22.400 262.154 C 22.400 262.870,23.688 266.938,23.997 267.200 C 24.127 267.310,24.479 268.210,24.780 269.200 C 25.080 270.190,25.538 271.360,25.796 271.800 C 26.054 272.240,26.601 273.545,27.012 274.700 C 27.422 275.855,27.865 276.800,27.996 276.800 C 28.127 276.800,28.571 277.790,28.982 279.000 C 29.393 280.210,29.852 281.200,30.001 281.200 C 30.150 281.200,30.510 281.923,30.802 282.806 C 31.093 283.689,31.572 284.611,31.866 284.855 C 32.160 285.098,32.400 285.501,32.400 285.749 C 32.400 285.997,33.930 288.895,35.800 292.188 C 37.670 295.482,39.200 298.308,39.200 298.468 C 39.200 298.629,39.446 298.904,39.746 299.080 C 40.046 299.256,40.605 300.013,40.988 300.762 C 41.372 301.512,41.847 302.322,42.044 302.562 C 42.241 302.803,43.061 303.990,43.866 305.200 C 45.269 307.310,48.452 311.722,49.782 313.400 C 50.130 313.840,51.092 315.110,51.918 316.221 C 53.708 318.628,54.220 319.256,55.800 320.982 C 56.460 321.703,57.810 323.259,58.800 324.440 C 61.265 327.381,70.708 336.843,74.555 340.225 C 81.349 346.202,80.626 345.594,83.813 348.000 C 85.124 348.990,86.544 350.113,86.969 350.495 C 87.394 350.878,88.069 351.295,88.471 351.422 C 88.872 351.550,89.200 351.788,89.200 351.951 C 89.200 352.114,90.415 353.043,91.900 354.015 C 93.385 354.987,94.690 355.890,94.800 356.021 C 94.910 356.153,95.625 356.607,96.388 357.030 C 97.151 357.454,98.130 358.115,98.563 358.500 C 98.997 358.885,99.559 359.200,99.813 359.200 C 100.068 359.200,100.587 359.544,100.967 359.963 C 101.347 360.383,102.230 360.958,102.929 361.241 C 103.628 361.523,104.290 361.865,104.400 362.001 C 104.732 362.409,113.333 367.080,114.300 367.377 C 114.795 367.529,115.200 367.822,115.200 368.027 C 115.200 368.232,115.394 368.400,115.631 368.400 C 116.030 368.400,119.302 369.862,124.206 372.231 C 125.309 372.764,126.355 373.200,126.531 373.200 C 126.707 373.200,127.785 373.626,128.926 374.147 C 130.067 374.669,131.585 375.223,132.300 375.379 C 133.015 375.536,133.600 375.803,133.600 375.972 C 133.600 376.142,134.815 376.607,136.300 377.005 C 137.785 377.402,139.090 377.845,139.200 377.988 C 139.310 378.132,140.660 378.579,142.200 378.982 C 143.740 379.384,145.180 379.849,145.400 380.013 C 145.620 380.178,147.240 380.626,149.000 381.008 C 150.760 381.390,152.380 381.835,152.600 381.996 C 152.820 382.157,154.710 382.609,156.800 383.000 C 158.890 383.391,160.780 383.840,161.000 383.998 C 161.220 384.155,163.740 384.597,166.600 384.981 C 169.460 385.364,172.160 385.826,172.600 386.008 C 177.195 387.909,222.944 387.913,227.400 386.013 C 227.840 385.825,230.540 385.365,233.400 384.991 C 236.260 384.616,238.780 384.175,239.000 384.011 C 239.220 383.846,241.110 383.391,243.200 383.000 C 245.290 382.609,247.180 382.157,247.400 381.996 C 247.620 381.835,249.240 381.390,251.000 381.008 C 252.760 380.626,254.380 380.178,254.600 380.013 C 254.820 379.849,256.260 379.384,257.800 378.982 C 259.340 378.579,260.690 378.135,260.800 377.996 C 260.910 377.856,262.170 377.418,263.600 377.023 C 265.030 376.627,266.555 376.055,266.989 375.752 C 267.423 375.448,268.053 375.198,268.389 375.196 C 268.725 375.194,269.900 374.750,271.000 374.209 C 272.100 373.668,273.177 373.219,273.394 373.213 C 273.611 373.206,274.691 372.764,275.794 372.231 C 280.698 369.862,283.970 368.400,284.369 368.400 C 284.606 368.400,284.800 368.232,284.800 368.027 C 284.800 367.822,285.205 367.529,285.700 367.377 C 286.667 367.080,295.268 362.409,295.600 362.001 C 295.710 361.865,296.372 361.523,297.071 361.241 C 297.770 360.958,298.653 360.383,299.033 359.963 C 299.413 359.544,299.879 359.200,300.068 359.200 C 300.383 359.200,304.737 356.479,305.200 355.992 C 305.310 355.877,306.615 354.987,308.100 354.015 C 309.585 353.043,310.800 352.114,310.800 351.951 C 310.800 351.788,311.128 351.550,311.529 351.422 C 311.931 351.295,312.606 350.878,313.030 350.495 C 313.454 350.113,314.669 349.170,315.731 348.400 C 316.793 347.630,318.178 346.550,318.810 346.000 C 319.442 345.450,320.809 344.280,321.848 343.400 C 327.084 338.965,337.290 328.993,341.200 324.492 C 342.190 323.352,343.540 321.815,344.200 321.075 C 344.860 320.335,345.850 319.147,346.400 318.435 C 346.950 317.722,347.805 316.658,348.300 316.070 C 348.794 315.481,349.199 314.891,349.200 314.758 C 349.200 314.626,349.605 314.053,350.100 313.486 C 350.595 312.920,351.629 311.589,352.397 310.528 C 353.166 309.468,353.887 308.510,354.000 308.400 C 354.113 308.290,354.966 307.030,355.895 305.600 C 356.824 304.170,357.731 302.820,357.912 302.600 C 358.092 302.380,358.591 301.570,359.020 300.800 C 359.449 300.030,359.949 299.291,360.130 299.158 C 360.312 299.024,360.852 298.181,361.330 297.284 C 361.809 296.387,363.415 293.506,364.900 290.882 C 366.385 288.258,367.600 285.928,367.600 285.704 C 367.600 285.481,367.840 285.098,368.134 284.855 C 368.428 284.611,368.907 283.689,369.198 282.806 C 369.490 281.923,369.850 281.200,369.999 281.200 C 370.148 281.200,370.607 280.210,371.018 279.000 C 371.429 277.790,371.873 276.800,372.004 276.800 C 372.135 276.800,372.578 275.855,372.988 274.700 C 373.399 273.545,373.946 272.240,374.204 271.800 C 374.462 271.360,374.920 270.190,375.220 269.200 C 375.521 268.210,375.873 267.310,376.003 267.200 C 376.312 266.938,377.600 262.870,377.600 262.154 C 377.600 261.849,377.765 261.600,377.966 261.600 C 378.167 261.600,378.650 260.250,379.039 258.600 C 379.428 256.950,379.868 255.600,380.018 255.600 C 380.167 255.600,380.625 254.070,381.035 252.200 C 381.445 250.330,381.898 248.800,382.043 248.800 C 382.187 248.800,382.618 247.045,383.000 244.900 C 383.382 242.755,383.834 240.820,384.006 240.600 C 384.178 240.380,384.619 238.130,384.988 235.600 C 385.356 233.070,385.816 230.640,386.010 230.200 C 386.440 229.226,387.600 218.438,387.600 215.422 C 387.600 214.226,387.780 213.136,388.000 213.000 C 388.254 212.843,388.400 207.870,388.400 199.400 C 388.400 190.930,388.254 185.957,388.000 185.800 C 387.780 185.664,387.600 184.713,387.600 183.686 C 387.600 180.909,386.338 169.031,386.019 168.800 C 385.867 168.690,385.414 166.305,385.013 163.500 C 384.612 160.695,384.161 158.400,384.011 158.400 C 383.862 158.400,383.424 156.600,383.039 154.400 C 382.654 152.200,382.207 150.400,382.046 150.400 C 381.885 150.400,381.424 148.780,381.022 146.800 C 380.620 144.820,380.170 143.200,380.023 143.200 C 379.875 143.200,379.420 141.895,379.010 140.300 C 378.601 138.705,378.153 137.310,378.014 137.200 C 377.875 137.090,377.427 135.875,377.017 134.500 C 376.608 133.125,376.165 132.000,376.032 132.000 C 375.899 132.000,375.455 130.830,375.045 129.400 C 374.636 127.970,374.182 126.800,374.038 126.800 C 373.893 126.800,373.533 125.980,373.237 124.978 C 372.941 123.976,372.479 122.936,372.210 122.667 C 371.941 122.398,371.493 121.489,371.216 120.648 C 370.699 119.083,366.694 110.930,366.079 110.191 C 365.891 109.966,365.402 109.021,364.992 108.091 C 364.582 107.161,364.128 106.400,363.984 106.400 C 363.840 106.400,363.381 105.635,362.966 104.700 C 362.550 103.765,362.072 102.820,361.904 102.600 C 361.182 101.658,358.800 98.004,358.800 97.838 C 358.800 97.738,358.035 96.542,357.100 95.179 C 356.165 93.816,355.191 92.339,354.936 91.897 C 354.681 91.454,354.321 90.981,354.136 90.846 C 353.951 90.711,353.111 89.576,352.268 88.324 C 351.426 87.073,350.436 85.692,350.068 85.255 C 349.701 84.818,348.950 83.877,348.400 83.163 C 347.850 82.449,346.995 81.437,346.500 80.914 C 346.005 80.391,345.600 79.874,345.600 79.765 C 345.600 78.968,332.889 65.407,328.181 61.181 C 322.838 56.386,318.661 52.873,314.400 49.591 C 311.434 47.307,307.928 44.798,307.682 44.784 C 307.527 44.775,306.777 44.235,306.015 43.584 C 305.253 42.933,304.398 42.400,304.115 42.400 C 303.832 42.400,303.600 42.250,303.600 42.068 C 303.600 41.885,303.107 41.480,302.504 41.168 C 301.901 40.855,300.326 39.879,299.004 38.999 C 297.682 38.118,295.970 37.074,295.200 36.679 C 294.430 36.284,293.080 35.529,292.200 35.001 C 290.407 33.926,280.685 29.062,277.000 27.396 C 275.680 26.799,274.060 26.063,273.400 25.760 C 271.053 24.684,264.807 22.400,264.209 22.400 C 263.874 22.400,263.600 22.235,263.600 22.034 C 263.600 21.833,262.250 21.350,260.600 20.961 C 258.950 20.572,257.600 20.119,257.600 19.954 C 257.600 19.789,256.205 19.349,254.500 18.976 C 252.795 18.602,251.220 18.157,251.000 17.987 C 250.780 17.816,249.070 17.373,247.200 17.002 C 245.330 16.630,243.491 16.166,243.114 15.969 C 242.737 15.772,240.577 15.325,238.314 14.975 C 236.051 14.625,233.891 14.175,233.513 13.974 C 233.136 13.774,229.986 13.322,226.513 12.970 C 223.041 12.619,219.840 12.132,219.400 11.888 C 218.616 11.454,189.992 11.107,184.000 11.459 M310.578 111.018 C 322.140 122.577,331.600 132.162,331.600 132.317 C 331.600 133.058,154.631 309.510,154.094 309.304 C 153.775 309.182,131.845 287.409,105.361 260.921 L 57.208 212.760 78.379 191.580 C 90.023 179.931,99.696 170.400,99.874 170.400 C 100.052 170.400,112.394 182.595,127.299 197.499 L 154.401 224.599 221.700 157.299 C 258.715 120.285,289.125 90.000,289.278 90.000 C 289.431 90.000,299.016 99.458,310.578 111.018 " stroke="none" fill="#048c54" fill-rule="evenodd"></path><path id="path4" d="" stroke="none" fill="#149c64" fill-rule="evenodd"></path></g></svg>