<svg id="svg" xmlns="http://www.w3.org/2000/svg" xmlns:xlink="http://www.w3.org/1999/xlink" width="400" height="400" viewBox="0, 0, 400,400"><g id="svgg"><path id="path0" d="M113.707 15.968 C 104.775 18.530,98.107 25.358,95.822 34.285 C 95.253 36.507,95.197 42.478,95.293 90.685 L 95.400 144.600 96.371 147.345 C 98.640 153.759,106.899 162.800,110.490 162.800 C 110.793 162.800,111.211 162.970,111.420 163.177 C 112.670 164.418,115.620 164.563,143.985 164.781 L 172.570 165.000 180.066 175.000 C 184.189 180.500,187.795 185.299,188.081 185.665 C 188.366 186.031,191.030 189.580,194.000 193.553 C 196.970 197.525,199.682 200.781,200.027 200.788 C 200.392 200.795,204.659 195.427,210.227 187.957 C 215.492 180.894,219.980 174.908,220.200 174.655 C 220.420 174.402,222.189 172.082,224.132 169.498 L 227.664 164.800 255.612 164.800 C 286.404 164.800,285.246 164.883,291.200 162.260 C 294.790 160.678,300.660 154.807,302.258 151.200 C 304.960 145.097,304.800 148.958,304.800 90.000 C 304.800 44.966,304.709 36.102,304.231 34.320 C 301.919 25.698,295.983 19.215,287.800 16.373 L 285.000 15.400 200.600 15.327 C 120.622 15.257,116.069 15.291,113.707 15.968 " stroke="none" fill="#bce3bc" fill-rule="evenodd"></path><path id="path1" d="M91.200 200.000 C 91.200 200.220,90.300 200.400,89.200 200.400 C 87.689 200.400,87.200 200.547,87.200 201.000 C 87.200 201.443,86.736 201.600,85.424 201.600 C 84.447 201.600,83.536 201.780,83.400 202.000 C 83.264 202.220,82.533 202.400,81.776 202.400 C 81.019 202.400,80.400 202.580,80.400 202.800 C 80.400 203.020,80.040 203.200,79.600 203.200 C 79.156 203.200,78.800 203.467,78.800 203.800 C 78.800 204.173,78.422 204.400,77.800 204.400 C 77.250 204.400,76.800 204.580,76.800 204.800 C 76.800 205.020,76.350 205.200,75.800 205.200 C 75.250 205.200,74.800 205.393,74.800 205.629 C 74.800 206.334,73.714 207.200,72.829 207.200 C 72.373 207.200,72.000 207.380,72.000 207.600 C 72.000 207.820,71.665 208.000,71.256 208.000 C 70.847 208.000,70.174 208.450,69.761 209.000 C 69.348 209.550,68.783 210.000,68.505 210.000 C 68.227 210.000,68.000 210.188,68.000 210.418 C 68.000 211.147,66.069 212.800,65.218 212.800 C 64.758 212.800,64.400 213.062,64.400 213.400 C 64.400 213.730,64.207 214.000,63.971 214.000 C 63.324 214.000,62.400 215.058,62.400 215.800 C 62.400 216.542,61.476 217.600,60.829 217.600 C 60.593 217.600,60.400 217.830,60.400 218.112 C 60.400 218.393,60.040 218.883,59.600 219.200 C 59.160 219.517,58.800 220.187,58.800 220.688 C 58.800 221.190,58.607 221.600,58.371 221.600 C 57.666 221.600,56.800 222.686,56.800 223.571 C 56.800 224.041,56.540 224.400,56.200 224.400 C 55.827 224.400,55.600 224.778,55.600 225.400 C 55.600 225.950,55.420 226.400,55.200 226.400 C 54.980 226.400,54.800 226.760,54.800 227.200 C 54.800 227.640,54.620 228.000,54.400 228.000 C 54.180 228.000,54.000 228.450,54.000 229.000 C 54.000 229.622,53.773 230.000,53.400 230.000 C 53.027 230.000,52.800 230.378,52.800 231.000 C 52.800 231.550,52.620 232.000,52.400 232.000 C 52.180 232.000,52.000 232.630,52.000 233.400 C 52.000 234.170,51.820 234.800,51.600 234.800 C 51.380 234.800,51.200 235.700,51.200 236.800 C 51.200 238.311,51.053 238.800,50.600 238.800 C 50.124 238.800,50.000 239.378,50.000 241.600 C 50.000 243.200,49.829 244.400,49.600 244.400 C 49.352 244.400,49.200 246.533,49.200 250.000 C 49.200 253.467,49.352 255.600,49.600 255.600 C 49.829 255.600,50.000 256.804,50.000 258.413 C 50.000 260.544,50.145 261.281,50.600 261.455 C 51.007 261.612,51.200 262.250,51.200 263.443 C 51.200 264.409,51.380 265.200,51.600 265.200 C 51.820 265.200,52.000 265.830,52.000 266.600 C 52.000 267.370,52.180 268.000,52.400 268.000 C 52.620 268.000,52.800 268.450,52.800 269.000 C 52.800 269.622,53.027 270.000,53.400 270.000 C 53.773 270.000,54.000 270.378,54.000 271.000 C 54.000 271.550,54.180 272.000,54.400 272.000 C 54.620 272.000,54.800 272.450,54.800 273.000 C 54.800 273.550,54.980 274.000,55.200 274.000 C 55.420 274.000,55.600 274.360,55.600 274.800 C 55.600 275.244,55.867 275.600,56.200 275.600 C 56.540 275.600,56.800 275.959,56.800 276.429 C 56.800 277.314,57.666 278.400,58.371 278.400 C 58.607 278.400,58.800 278.850,58.800 279.400 C 58.800 279.950,58.980 280.400,59.200 280.400 C 59.420 280.400,59.600 280.593,59.600 280.829 C 59.600 281.295,60.585 282.400,61.000 282.400 C 61.537 282.400,62.400 283.574,62.400 284.304 C 62.400 284.722,62.850 285.306,63.400 285.600 C 63.950 285.894,64.400 286.375,64.400 286.668 C 64.400 286.960,64.773 287.200,65.229 287.200 C 66.013 287.200,67.200 288.043,67.200 288.600 C 67.200 288.972,68.284 290.000,68.676 290.000 C 68.860 290.000,69.348 290.450,69.761 291.000 C 70.174 291.550,70.847 292.000,71.256 292.000 C 71.665 292.000,72.000 292.180,72.000 292.400 C 72.000 292.620,72.450 292.800,73.000 292.800 C 73.550 292.800,74.000 292.993,74.000 293.229 C 74.000 293.934,75.086 294.800,75.971 294.800 C 76.427 294.800,76.800 294.980,76.800 295.200 C 76.800 295.420,77.250 295.600,77.800 295.600 C 78.422 295.600,78.800 295.827,78.800 296.200 C 78.800 296.530,79.149 296.800,79.576 296.800 C 80.003 296.800,80.464 296.980,80.600 297.200 C 80.736 297.420,81.377 297.600,82.024 297.600 C 82.671 297.600,83.200 297.780,83.200 298.000 C 83.200 298.220,84.100 298.400,85.200 298.400 C 86.711 298.400,87.200 298.547,87.200 299.000 C 87.200 299.453,87.689 299.600,89.200 299.600 C 90.300 299.600,91.200 299.780,91.200 300.000 C 91.200 300.255,94.392 300.400,99.976 300.400 C 105.396 300.400,108.847 300.247,109.000 300.000 C 109.136 299.780,110.047 299.600,111.024 299.600 C 112.336 299.600,112.800 299.443,112.800 299.000 C 112.800 298.547,113.289 298.400,114.800 298.400 C 115.900 298.400,116.800 298.220,116.800 298.000 C 116.800 297.780,117.430 297.600,118.200 297.600 C 118.970 297.600,119.600 297.420,119.600 297.200 C 119.600 296.980,119.966 296.800,120.413 296.800 C 120.859 296.800,121.329 296.530,121.455 296.200 C 121.582 295.870,122.026 295.600,122.443 295.600 C 122.859 295.600,123.200 295.420,123.200 295.200 C 123.200 294.980,123.573 294.800,124.029 294.800 C 124.914 294.800,126.000 293.934,126.000 293.229 C 126.000 292.993,126.450 292.800,127.000 292.800 C 127.550 292.800,128.000 292.620,128.000 292.400 C 128.000 292.180,128.335 292.000,128.744 292.000 C 129.153 292.000,129.826 291.550,130.239 291.000 C 130.652 290.450,131.140 290.000,131.324 290.000 C 131.800 290.000,132.800 288.936,132.800 288.429 C 132.800 288.193,133.070 288.000,133.400 288.000 C 133.730 288.000,134.000 287.820,134.000 287.600 C 134.000 287.380,134.360 287.200,134.800 287.200 C 135.244 287.200,135.600 286.933,135.600 286.600 C 135.600 286.270,135.793 286.000,136.029 286.000 C 136.676 286.000,137.600 284.942,137.600 284.200 C 137.600 283.553,138.497 282.400,139.000 282.400 C 139.415 282.400,140.400 281.295,140.400 280.829 C 140.400 280.593,140.670 280.400,141.000 280.400 C 141.358 280.400,141.600 280.032,141.600 279.488 C 141.600 278.987,141.960 278.317,142.400 278.000 C 142.840 277.683,143.200 277.013,143.200 276.512 C 143.200 275.968,143.442 275.600,143.800 275.600 C 144.133 275.600,144.400 275.244,144.400 274.800 C 144.400 274.360,144.580 274.000,144.800 274.000 C 145.020 274.000,145.200 273.550,145.200 273.000 C 145.200 272.450,145.380 272.000,145.600 272.000 C 145.820 272.000,146.000 271.550,146.000 271.000 C 146.000 270.378,146.227 270.000,146.600 270.000 C 146.973 270.000,147.200 269.622,147.200 269.000 C 147.200 268.450,147.380 268.000,147.600 268.000 C 147.820 268.000,148.000 267.389,148.000 266.643 C 148.000 265.805,148.230 265.197,148.600 265.055 C 148.994 264.904,149.200 264.280,149.200 263.236 C 149.200 262.362,149.380 261.536,149.600 261.400 C 149.820 261.264,150.000 259.903,150.000 258.376 C 150.000 256.792,150.172 255.600,150.400 255.600 C 150.648 255.600,150.800 253.467,150.800 250.000 C 150.800 246.533,150.648 244.400,150.400 244.400 C 150.171 244.400,150.000 243.200,150.000 241.600 C 150.000 240.000,149.829 238.800,149.600 238.800 C 149.380 238.800,149.200 237.984,149.200 236.987 C 149.200 235.745,149.011 235.102,148.600 234.945 C 148.230 234.803,148.000 234.195,148.000 233.357 C 148.000 232.611,147.820 232.000,147.600 232.000 C 147.380 232.000,147.200 231.550,147.200 231.000 C 147.200 230.378,146.973 230.000,146.600 230.000 C 146.227 230.000,146.000 229.622,146.000 229.000 C 146.000 228.450,145.820 228.000,145.600 228.000 C 145.380 228.000,145.200 227.640,145.200 227.200 C 145.200 226.760,145.020 226.400,144.800 226.400 C 144.580 226.400,144.400 225.950,144.400 225.400 C 144.400 224.778,144.173 224.400,143.800 224.400 C 143.442 224.400,143.200 224.032,143.200 223.488 C 143.200 222.987,142.840 222.317,142.400 222.000 C 141.960 221.683,141.600 221.128,141.600 220.768 C 141.600 220.407,141.150 219.774,140.600 219.361 C 140.050 218.948,139.600 218.383,139.600 218.105 C 139.600 217.827,139.407 217.600,139.171 217.600 C 138.524 217.600,137.600 216.542,137.600 215.800 C 137.600 215.058,136.676 214.000,136.029 214.000 C 135.793 214.000,135.600 213.730,135.600 213.400 C 135.600 213.067,135.244 212.800,134.800 212.800 C 134.360 212.800,134.000 212.620,134.000 212.400 C 134.000 212.180,133.807 212.000,133.571 212.000 C 133.018 212.000,132.000 210.982,132.000 210.429 C 132.000 210.193,131.773 210.000,131.495 210.000 C 131.217 210.000,130.652 209.550,130.239 209.000 C 129.826 208.450,129.153 208.000,128.744 208.000 C 128.335 208.000,128.000 207.820,128.000 207.600 C 128.000 207.380,127.627 207.200,127.171 207.200 C 126.286 207.200,125.200 206.334,125.200 205.629 C 125.200 205.393,124.750 205.200,124.200 205.200 C 123.650 205.200,123.200 205.020,123.200 204.800 C 123.200 204.580,122.859 204.400,122.443 204.400 C 122.026 204.400,121.582 204.130,121.455 203.800 C 121.329 203.470,120.859 203.200,120.413 203.200 C 119.966 203.200,119.600 203.020,119.600 202.800 C 119.600 202.580,118.970 202.400,118.200 202.400 C 117.430 202.400,116.800 202.220,116.800 202.000 C 116.800 201.780,115.900 201.600,114.800 201.600 C 113.289 201.600,112.800 201.453,112.800 201.000 C 112.800 200.557,112.336 200.400,111.024 200.400 C 110.047 200.400,109.136 200.220,109.000 200.000 C 108.847 199.753,105.396 199.600,99.976 199.600 C 94.392 199.600,91.200 199.745,91.200 200.000 M291.200 200.000 C 291.200 200.220,290.300 200.400,289.200 200.400 C 287.689 200.400,287.200 200.547,287.200 201.000 C 287.200 201.443,286.736 201.600,285.424 201.600 C 284.447 201.600,283.536 201.780,283.400 202.000 C 283.264 202.220,282.533 202.400,281.776 202.400 C 281.019 202.400,280.400 202.580,280.400 202.800 C 280.400 203.020,280.040 203.200,279.600 203.200 C 279.156 203.200,278.800 203.467,278.800 203.800 C 278.800 204.173,278.422 204.400,277.800 204.400 C 277.250 204.400,276.800 204.580,276.800 204.800 C 276.800 205.020,276.350 205.200,275.800 205.200 C 275.250 205.200,274.800 205.393,274.800 205.629 C 274.800 206.334,273.714 207.200,272.829 207.200 C 272.373 207.200,272.000 207.380,272.000 207.600 C 272.000 207.820,271.665 208.000,271.256 208.000 C 270.847 208.000,270.174 208.450,269.761 209.000 C 269.348 209.550,268.783 210.000,268.505 210.000 C 268.227 210.000,268.000 210.188,268.000 210.418 C 268.000 211.147,266.069 212.800,265.218 212.800 C 264.758 212.800,264.400 213.062,264.400 213.400 C 264.400 213.730,264.207 214.000,263.971 214.000 C 263.324 214.000,262.400 215.058,262.400 215.800 C 262.400 216.542,261.476 217.600,260.829 217.600 C 260.593 217.600,260.400 217.830,260.400 218.112 C 260.400 218.393,260.040 218.883,259.600 219.200 C 259.160 219.517,258.800 220.187,258.800 220.688 C 258.800 221.190,258.607 221.600,258.371 221.600 C 257.666 221.600,256.800 222.686,256.800 223.571 C 256.800 224.041,256.540 224.400,256.200 224.400 C 255.827 224.400,255.600 224.778,255.600 225.400 C 255.600 225.950,255.420 226.400,255.200 226.400 C 254.980 226.400,254.800 226.760,254.800 227.200 C 254.800 227.640,254.620 228.000,254.400 228.000 C 254.180 228.000,254.000 228.450,254.000 229.000 C 254.000 229.622,253.773 230.000,253.400 230.000 C 253.027 230.000,252.800 230.378,252.800 231.000 C 252.800 231.550,252.620 232.000,252.400 232.000 C 252.180 232.000,252.000 232.630,252.000 233.400 C 252.000 234.170,251.820 234.800,251.600 234.800 C 251.380 234.800,251.200 235.700,251.200 236.800 C 251.200 238.311,251.053 238.800,250.600 238.800 C 250.124 238.800,250.000 239.378,250.000 241.600 C 250.000 243.200,249.829 244.400,249.600 244.400 C 249.352 244.400,249.200 246.533,249.200 250.000 C 249.200 253.467,249.352 255.600,249.600 255.600 C 249.829 255.600,250.000 256.804,250.000 258.413 C 250.000 260.544,250.145 261.281,250.600 261.455 C 251.007 261.612,251.200 262.250,251.200 263.443 C 251.200 264.409,251.380 265.200,251.600 265.200 C 251.820 265.200,252.000 265.830,252.000 266.600 C 252.000 267.370,252.180 268.000,252.400 268.000 C 252.620 268.000,252.800 268.450,252.800 269.000 C 252.800 269.622,253.027 270.000,253.400 270.000 C 253.773 270.000,254.000 270.378,254.000 271.000 C 254.000 271.550,254.180 272.000,254.400 272.000 C 254.620 272.000,254.800 272.450,254.800 273.000 C 254.800 273.550,254.980 274.000,255.200 274.000 C 255.420 274.000,255.600 274.360,255.600 274.800 C 255.600 275.244,255.867 275.600,256.200 275.600 C 256.540 275.600,256.800 275.959,256.800 276.429 C 256.800 277.314,257.666 278.400,258.371 278.400 C 258.607 278.400,258.800 278.850,258.800 279.400 C 258.800 279.950,258.980 280.400,259.200 280.400 C 259.420 280.400,259.600 280.593,259.600 280.829 C 259.600 281.295,260.585 282.400,261.000 282.400 C 261.537 282.400,262.400 283.574,262.400 284.304 C 262.400 284.722,262.850 285.306,263.400 285.600 C 263.950 285.894,264.400 286.375,264.400 286.668 C 264.400 286.960,264.773 287.200,265.229 287.200 C 266.013 287.200,267.200 288.043,267.200 288.600 C 267.200 288.972,268.284 290.000,268.676 290.000 C 268.860 290.000,269.348 290.450,269.761 291.000 C 270.174 291.550,270.847 292.000,271.256 292.000 C 271.665 292.000,272.000 292.180,272.000 292.400 C 272.000 292.620,272.450 292.800,273.000 292.800 C 273.550 292.800,274.000 292.993,274.000 293.229 C 274.000 293.934,275.086 294.800,275.971 294.800 C 276.427 294.800,276.800 294.980,276.800 295.200 C 276.800 295.420,277.250 295.600,277.800 295.600 C 278.422 295.600,278.800 295.827,278.800 296.200 C 278.800 296.530,279.149 296.800,279.576 296.800 C 280.003 296.800,280.464 296.980,280.600 297.200 C 280.736 297.420,281.377 297.600,282.024 297.600 C 282.671 297.600,283.200 297.780,283.200 298.000 C 283.200 298.220,284.100 298.400,285.200 298.400 C 286.711 298.400,287.200 298.547,287.200 299.000 C 287.200 299.453,287.689 299.600,289.200 299.600 C 290.300 299.600,291.200 299.780,291.200 300.000 C 291.200 300.255,294.392 300.400,299.976 300.400 C 305.396 300.400,308.847 300.247,309.000 300.000 C 309.136 299.780,310.047 299.600,311.024 299.600 C 312.336 299.600,312.800 299.443,312.800 299.000 C 312.800 298.547,313.289 298.400,314.800 298.400 C 315.900 298.400,316.800 298.220,316.800 298.000 C 316.800 297.780,317.430 297.600,318.200 297.600 C 318.970 297.600,319.600 297.420,319.600 297.200 C 319.600 296.980,319.966 296.800,320.413 296.800 C 320.859 296.800,321.329 296.530,321.455 296.200 C 321.582 295.870,322.026 295.600,322.443 295.600 C 322.859 295.600,323.200 295.420,323.200 295.200 C 323.200 294.980,323.573 294.800,324.029 294.800 C 324.914 294.800,326.000 293.934,326.000 293.229 C 326.000 292.993,326.450 292.800,327.000 292.800 C 327.550 292.800,328.000 292.620,328.000 292.400 C 328.000 292.180,328.335 292.000,328.744 292.000 C 329.153 292.000,329.826 291.550,330.239 291.000 C 330.652 290.450,331.140 290.000,331.324 290.000 C 331.800 290.000,332.800 288.936,332.800 288.429 C 332.800 288.193,333.070 288.000,333.400 288.000 C 333.730 288.000,334.000 287.820,334.000 287.600 C 334.000 287.380,334.360 287.200,334.800 287.200 C 335.244 287.200,335.600 286.933,335.600 286.600 C 335.600 286.270,335.793 286.000,336.029 286.000 C 336.676 286.000,337.600 284.942,337.600 284.200 C 337.600 283.553,338.497 282.400,339.000 282.400 C 339.415 282.400,340.400 281.295,340.400 280.829 C 340.400 280.593,340.670 280.400,341.000 280.400 C 341.358 280.400,341.600 280.032,341.600 279.488 C 341.600 278.987,341.960 278.317,342.400 278.000 C 342.840 277.683,343.200 277.013,343.200 276.512 C 343.200 275.968,343.442 275.600,343.800 275.600 C 344.133 275.600,344.400 275.244,344.400 274.800 C 344.400 274.360,344.580 274.000,344.800 274.000 C 345.020 274.000,345.200 273.550,345.200 273.000 C 345.200 272.450,345.380 272.000,345.600 272.000 C 345.820 272.000,346.000 271.550,346.000 271.000 C 346.000 270.378,346.227 270.000,346.600 270.000 C 346.973 270.000,347.200 269.622,347.200 269.000 C 347.200 268.450,347.380 268.000,347.600 268.000 C 347.820 268.000,348.000 267.389,348.000 266.643 C 348.000 265.805,348.230 265.197,348.600 265.055 C 348.994 264.904,349.200 264.280,349.200 263.236 C 349.200 262.362,349.380 261.536,349.600 261.400 C 349.820 261.264,350.000 259.903,350.000 258.376 C 350.000 256.792,350.172 255.600,350.400 255.600 C 350.648 255.600,350.800 253.467,350.800 250.000 C 350.800 246.533,350.648 244.400,350.400 244.400 C 350.171 244.400,350.000 243.200,350.000 241.600 C 350.000 240.000,349.829 238.800,349.600 238.800 C 349.380 238.800,349.200 237.984,349.200 236.987 C 349.200 235.745,349.011 235.102,348.600 234.945 C 348.230 234.803,348.000 234.195,348.000 233.357 C 348.000 232.611,347.820 232.000,347.600 232.000 C 347.380 232.000,347.200 231.550,347.200 231.000 C 347.200 230.378,346.973 230.000,346.600 230.000 C 346.227 230.000,346.000 229.622,346.000 229.000 C 346.000 228.450,345.820 228.000,345.600 228.000 C 345.380 228.000,345.200 227.640,345.200 227.200 C 345.200 226.760,345.020 226.400,344.800 226.400 C 344.580 226.400,344.400 225.950,344.400 225.400 C 344.400 224.778,344.173 224.400,343.800 224.400 C 343.442 224.400,343.200 224.032,343.200 223.488 C 343.200 222.987,342.840 222.317,342.400 222.000 C 341.960 221.683,341.600 221.128,341.600 220.768 C 341.600 220.407,341.150 219.774,340.600 219.361 C 340.050 218.948,339.600 218.383,339.600 218.105 C 339.600 217.827,339.407 217.600,339.171 217.600 C 338.524 217.600,337.600 216.542,337.600 215.800 C 337.600 215.058,336.676 214.000,336.029 214.000 C 335.793 214.000,335.600 213.730,335.600 213.400 C 335.600 213.067,335.244 212.800,334.800 212.800 C 334.360 212.800,334.000 212.620,334.000 212.400 C 334.000 212.180,333.807 212.000,333.571 212.000 C 333.018 212.000,332.000 210.982,332.000 210.429 C 332.000 210.193,331.773 210.000,331.495 210.000 C 331.217 210.000,330.652 209.550,330.239 209.000 C 329.826 208.450,329.153 208.000,328.744 208.000 C 328.335 208.000,328.000 207.820,328.000 207.600 C 328.000 207.380,327.627 207.200,327.171 207.200 C 326.286 207.200,325.200 206.334,325.200 205.629 C 325.200 205.393,324.750 205.200,324.200 205.200 C 323.650 205.200,323.200 205.020,323.200 204.800 C 323.200 204.580,322.859 204.400,322.443 204.400 C 322.026 204.400,321.582 204.130,321.455 203.800 C 321.329 203.470,320.859 203.200,320.413 203.200 C 319.966 203.200,319.600 203.020,319.600 202.800 C 319.600 202.580,318.970 202.400,318.200 202.400 C 317.430 202.400,316.800 202.220,316.800 202.000 C 316.800 201.780,315.900 201.600,314.800 201.600 C 313.289 201.600,312.800 201.453,312.800 201.000 C 312.800 200.557,312.336 200.400,311.024 200.400 C 310.047 200.400,309.136 200.220,309.000 200.000 C 308.847 199.753,305.396 199.600,299.976 199.600 C 294.392 199.600,291.200 199.745,291.200 200.000 M104.800 205.399 C 123.673 207.790,138.274 220.144,143.330 238.000 C 151.930 268.371,126.313 298.387,95.000 294.628 C 88.335 293.828,78.123 290.277,76.353 288.143 C 76.105 287.844,75.719 287.600,75.495 287.600 C 75.272 287.600,73.809 286.577,72.244 285.327 C 40.920 260.289,54.907 210.732,94.800 205.411 C 99.869 204.735,99.559 204.735,104.800 205.399 M304.800 205.399 C 323.673 207.790,338.274 220.144,343.330 238.000 C 351.930 268.371,326.313 298.387,295.000 294.628 C 288.335 293.828,278.123 290.277,276.353 288.143 C 276.105 287.844,275.719 287.600,275.495 287.600 C 275.272 287.600,273.809 286.577,272.244 285.327 C 240.920 260.289,254.907 210.732,294.800 205.411 C 299.869 204.735,299.559 204.735,304.800 205.399 " stroke="none" fill="#909d5f" fill-rule="evenodd"></path><path id="path2" d="M115.804 9.607 C 115.953 9.848,115.108 10.000,113.624 10.000 C 111.736 10.000,111.200 10.133,111.200 10.600 C 111.200 11.033,110.756 11.200,109.600 11.200 C 108.720 11.200,108.000 11.343,108.000 11.518 C 108.000 11.693,107.190 12.170,106.200 12.578 C 105.210 12.987,104.400 13.473,104.400 13.660 C 104.400 13.847,104.040 14.000,103.600 14.000 C 103.160 14.000,102.800 14.180,102.800 14.400 C 102.800 14.620,102.530 14.800,102.200 14.800 C 101.870 14.800,101.600 15.089,101.600 15.443 C 101.600 15.850,101.380 16.001,101.000 15.855 C 100.635 15.715,100.400 15.854,100.400 16.209 C 100.400 16.530,100.040 17.018,99.600 17.293 C 99.160 17.568,98.800 18.019,98.800 18.296 C 98.800 18.573,98.573 18.800,98.296 18.800 C 98.019 18.800,97.568 19.160,97.293 19.600 C 97.018 20.040,96.530 20.400,96.209 20.400 C 95.854 20.400,95.715 20.635,95.855 21.000 C 95.984 21.336,95.866 21.600,95.587 21.600 C 94.936 21.600,94.029 22.810,94.013 23.700 C 94.006 24.085,93.847 24.400,93.660 24.400 C 93.473 24.400,92.987 25.210,92.578 26.200 C 92.170 27.190,91.693 28.000,91.518 28.000 C 91.343 28.000,91.200 28.720,91.200 29.600 C 91.200 30.756,91.033 31.200,90.600 31.200 C 90.133 31.200,90.000 31.736,90.000 33.624 C 90.000 35.119,89.849 35.954,89.604 35.803 C 89.344 35.642,89.210 54.209,89.213 89.979 C 89.215 125.217,89.355 144.400,89.608 144.400 C 89.824 144.400,90.000 145.210,90.000 146.200 C 90.000 147.533,90.156 148.000,90.600 148.000 C 91.019 148.000,91.200 148.422,91.200 149.400 C 91.200 150.170,91.380 150.800,91.600 150.800 C 91.820 150.800,92.000 151.250,92.000 151.800 C 92.000 152.350,92.180 152.800,92.400 152.800 C 92.620 152.800,92.800 153.166,92.800 153.613 C 92.800 154.059,93.054 154.522,93.364 154.641 C 93.674 154.761,94.030 155.264,94.154 155.760 C 94.279 156.256,94.850 157.169,95.423 157.787 C 96.237 158.665,96.349 158.986,95.933 159.250 C 95.509 159.519,95.525 159.589,96.012 159.594 C 96.348 159.597,96.883 159.960,97.200 160.400 C 97.517 160.840,98.007 161.200,98.288 161.200 C 98.570 161.200,98.800 161.393,98.800 161.629 C 98.800 162.148,99.804 163.200,100.299 163.200 C 100.496 163.200,101.392 163.830,102.292 164.600 C 103.191 165.370,104.214 166.000,104.564 166.000 C 104.914 166.000,105.200 166.270,105.200 166.600 C 105.200 166.930,105.470 167.200,105.800 167.200 C 106.130 167.200,106.400 167.380,106.400 167.600 C 106.400 167.820,107.030 168.000,107.800 168.000 C 108.840 168.000,109.200 168.171,109.200 168.667 C 109.200 169.033,109.313 169.220,109.451 169.083 C 109.589 168.945,110.312 169.087,111.058 169.398 C 112.619 170.051,112.335 170.000,114.424 170.000 C 115.486 170.000,115.955 170.150,115.780 170.433 C 115.620 170.691,115.812 170.833,116.256 170.786 C 120.851 170.301,170.000 170.883,170.000 171.424 C 170.000 171.767,170.171 171.942,170.380 171.812 C 170.853 171.520,171.678 172.977,171.286 173.412 C 171.129 173.586,171.225 173.599,171.500 173.441 C 171.809 173.263,172.000 173.391,172.000 173.776 C 172.000 174.119,172.180 174.400,172.400 174.400 C 172.620 174.400,172.800 174.670,172.800 175.000 C 172.800 175.330,173.034 175.600,173.320 175.600 C 173.605 175.600,174.067 176.230,174.346 177.000 C 174.624 177.770,175.020 178.400,175.226 178.400 C 175.432 178.400,175.600 178.670,175.600 179.000 C 175.600 179.330,175.870 179.600,176.200 179.600 C 176.530 179.600,176.800 179.870,176.800 180.200 C 176.800 180.530,177.025 180.803,177.300 180.806 C 177.633 180.810,177.600 180.942,177.200 181.200 C 176.870 181.413,176.780 181.591,177.000 181.594 C 177.724 181.606,179.450 183.376,180.028 184.700 C 180.340 185.415,180.821 186.000,181.098 186.000 C 181.374 186.000,181.600 186.270,181.600 186.600 C 181.600 186.930,181.768 187.200,181.973 187.200 C 182.178 187.200,182.473 187.601,182.629 188.092 C 182.785 188.583,183.438 189.475,184.080 190.074 C 184.722 190.674,185.274 191.520,185.307 191.955 C 185.339 192.389,185.510 192.656,185.686 192.547 C 185.862 192.438,186.129 192.676,186.280 193.075 C 186.577 193.857,187.379 194.776,187.886 194.914 C 188.059 194.961,188.161 195.116,188.114 195.257 C 188.067 195.398,188.472 195.993,189.014 196.578 C 189.556 197.163,190.000 197.812,190.000 198.021 C 190.000 198.229,190.270 198.400,190.600 198.400 C 190.930 198.400,191.200 198.751,191.200 199.181 C 191.200 199.610,191.830 200.573,192.600 201.321 C 193.370 202.069,194.000 203.037,194.000 203.473 C 194.000 203.908,194.444 204.502,194.986 204.793 C 195.529 205.083,195.878 205.473,195.763 205.660 C 195.647 205.847,195.833 206.000,196.176 206.000 C 196.575 206.000,196.800 206.361,196.800 207.000 C 196.800 207.550,196.980 208.000,197.200 208.000 C 197.420 208.000,197.600 208.289,197.600 208.643 C 197.600 209.050,197.820 209.201,198.200 209.055 C 198.565 208.915,198.800 209.055,198.800 209.413 C 198.800 209.819,199.238 210.000,200.224 210.000 C 201.071 210.000,201.547 209.838,201.400 209.600 C 201.264 209.380,201.331 209.200,201.549 209.200 C 201.768 209.200,202.061 208.837,202.202 208.394 C 202.343 207.951,202.587 207.669,202.746 207.766 C 202.904 207.864,203.058 207.629,203.087 207.242 C 203.116 206.856,203.783 205.897,204.570 205.110 C 205.356 204.324,206.000 203.392,206.000 203.040 C 206.000 202.688,206.270 202.400,206.600 202.400 C 206.930 202.400,207.200 202.119,207.200 201.776 C 207.200 201.433,207.361 201.252,207.557 201.374 C 207.754 201.495,208.036 201.110,208.185 200.518 C 208.402 199.654,208.534 199.556,208.854 200.021 C 209.159 200.464,209.197 200.403,209.019 199.762 C 208.852 199.162,209.072 198.707,209.793 198.167 C 210.347 197.751,210.800 197.177,210.800 196.893 C 210.800 196.608,211.070 196.271,211.400 196.145 C 211.730 196.018,212.000 195.746,212.000 195.540 C 212.000 195.140,212.532 194.433,213.777 193.180 C 214.204 192.749,214.595 192.117,214.645 191.774 C 214.751 191.051,216.639 189.200,217.270 189.200 C 217.527 189.200,217.478 188.929,217.149 188.523 C 216.776 188.063,216.760 187.943,217.100 188.147 C 217.415 188.336,217.600 188.216,217.600 187.824 C 217.600 187.481,217.780 187.200,218.000 187.200 C 218.220 187.200,218.400 186.930,218.400 186.600 C 218.400 186.270,218.593 186.000,218.829 186.000 C 219.534 186.000,220.400 184.914,220.400 184.029 C 220.400 183.573,220.640 183.200,220.932 183.200 C 221.225 183.200,221.702 182.756,221.993 182.214 C 222.283 181.671,222.673 181.322,222.860 181.437 C 223.047 181.553,223.200 181.187,223.200 180.624 C 223.200 179.980,223.423 179.600,223.800 179.600 C 224.130 179.600,224.400 179.370,224.400 179.088 C 224.400 178.807,224.760 178.317,225.200 178.000 C 225.640 177.683,226.000 177.013,226.000 176.512 C 226.000 176.010,226.193 175.600,226.429 175.600 C 226.932 175.600,228.212 174.406,227.729 174.387 C 227.548 174.380,227.729 174.125,228.130 173.821 C 228.532 173.516,228.899 173.007,228.946 172.690 C 229.231 170.747,228.433 170.800,257.148 170.800 C 274.586 170.800,284.039 170.660,284.200 170.400 C 284.336 170.180,285.497 170.000,286.781 170.000 C 288.393 170.000,289.180 169.830,289.326 169.449 C 289.460 169.101,289.913 168.971,290.563 169.095 C 291.269 169.230,291.668 169.089,291.838 168.646 C 291.974 168.291,292.416 168.000,292.819 168.000 C 293.223 168.000,293.664 167.820,293.800 167.600 C 293.936 167.380,294.397 167.200,294.824 167.200 C 295.251 167.200,295.600 166.930,295.600 166.600 C 295.600 166.270,295.870 166.000,296.200 166.000 C 296.530 166.000,296.800 165.820,296.800 165.600 C 296.800 165.380,297.071 165.200,297.402 165.200 C 298.184 165.200,305.200 158.181,305.200 157.398 C 305.200 157.069,305.380 156.800,305.600 156.800 C 305.820 156.800,306.000 156.530,306.000 156.200 C 306.000 155.870,306.270 155.600,306.600 155.600 C 306.930 155.600,307.200 155.251,307.200 154.824 C 307.200 154.397,307.380 153.936,307.600 153.800 C 307.820 153.664,308.000 153.223,308.000 152.819 C 308.000 152.416,308.291 151.974,308.646 151.838 C 309.089 151.668,309.230 151.269,309.095 150.563 C 308.971 149.913,309.101 149.460,309.449 149.326 C 309.830 149.180,310.000 148.393,310.000 146.781 C 310.000 145.497,310.181 144.335,310.403 144.198 C 310.954 143.858,310.945 36.000,310.394 36.000 C 310.177 36.000,310.000 34.935,310.000 33.633 C 310.000 32.120,309.823 31.208,309.510 31.103 C 309.229 31.010,309.061 30.393,309.117 29.660 C 309.181 28.817,309.007 28.301,308.607 28.147 C 308.273 28.019,308.000 27.574,308.000 27.157 C 308.000 26.741,307.820 26.400,307.600 26.400 C 307.380 26.400,307.200 26.080,307.200 25.689 C 307.200 25.298,306.840 24.670,306.401 24.294 C 305.961 23.917,305.289 22.887,304.906 22.005 C 304.524 21.122,304.066 20.400,303.887 20.400 C 303.416 20.400,301.600 18.509,301.600 18.018 C 301.600 17.788,301.393 17.600,301.140 17.600 C 300.888 17.600,300.069 16.970,299.321 16.200 C 298.573 15.430,297.700 14.800,297.381 14.800 C 297.061 14.800,296.800 14.620,296.800 14.400 C 296.800 14.180,296.530 14.000,296.200 14.000 C 295.870 14.000,295.600 13.700,295.600 13.333 C 295.600 12.967,295.486 12.780,295.347 12.919 C 295.208 13.058,294.713 12.962,294.247 12.705 C 293.781 12.448,293.133 12.195,292.807 12.141 C 292.481 12.087,292.151 11.854,292.074 11.622 C 291.997 11.390,291.338 11.200,290.609 11.200 C 289.802 11.200,289.196 10.966,289.055 10.600 C 288.889 10.167,288.210 10.000,286.613 10.000 C 285.391 10.000,284.400 9.819,284.400 9.596 C 284.400 9.326,256.497 9.196,199.981 9.204 C 144.839 9.211,115.646 9.351,115.804 9.607 M287.297 16.179 C 295.484 18.851,301.737 25.144,304.140 33.128 C 304.767 35.212,304.767 144.788,304.140 146.872 C 301.726 154.893,294.866 161.751,286.872 164.136 C 285.880 164.432,276.055 164.613,256.729 164.693 L 228.058 164.810 227.057 165.905 C 226.506 166.507,222.431 171.860,218.001 177.800 C 213.571 183.740,209.592 189.050,209.159 189.600 C 208.727 190.150,206.624 192.979,204.487 195.888 C 202.257 198.921,200.354 201.137,200.024 201.087 C 199.706 201.038,196.345 196.859,192.553 191.799 C 188.761 186.740,185.510 182.420,185.328 182.200 C 185.146 181.980,183.392 179.640,181.431 177.000 C 175.160 168.560,173.040 165.812,172.412 165.313 C 171.945 164.941,165.261 164.822,144.120 164.813 C 113.904 164.799,114.516 164.841,109.544 162.437 C 102.964 159.255,98.030 153.281,95.804 145.800 C 95.290 144.073,95.208 136.427,95.204 89.751 L 95.200 35.702 96.181 32.697 C 98.878 24.435,104.789 18.625,113.200 15.968 C 115.259 15.318,120.828 15.271,199.849 15.236 L 284.298 15.200 287.297 16.179 M92.800 309.600 C 92.800 309.839,91.267 310.000,89.000 310.000 C 85.889 310.000,85.200 310.109,85.200 310.600 C 85.200 311.067,84.667 311.200,82.800 311.200 C 81.467 311.200,80.400 311.378,80.400 311.600 C 80.400 311.820,79.770 312.000,79.000 312.000 C 78.230 312.000,77.600 312.180,77.600 312.400 C 77.600 312.620,76.790 312.800,75.800 312.800 C 74.467 312.800,74.000 312.956,74.000 313.400 C 74.000 313.773,73.622 314.000,73.000 314.000 C 72.450 314.000,72.000 314.180,72.000 314.400 C 72.000 314.620,71.370 314.800,70.600 314.800 C 69.830 314.800,69.200 314.980,69.200 315.200 C 69.200 315.420,68.750 315.600,68.200 315.600 C 67.578 315.600,67.200 315.827,67.200 316.200 C 67.200 316.573,66.822 316.800,66.200 316.800 C 65.650 316.800,65.200 316.980,65.200 317.200 C 65.200 317.420,64.750 317.600,64.200 317.600 C 63.578 317.600,63.200 317.827,63.200 318.200 C 63.200 318.533,62.844 318.800,62.400 318.800 C 61.960 318.800,61.600 318.980,61.600 319.200 C 61.600 319.420,61.150 319.600,60.600 319.600 C 60.050 319.600,59.600 319.780,59.600 320.000 C 59.600 320.220,59.150 320.400,58.600 320.400 C 58.050 320.400,57.600 320.593,57.600 320.829 C 57.600 321.476,56.542 322.400,55.800 322.400 C 55.058 322.400,54.000 323.324,54.000 323.971 C 54.000 324.207,53.627 324.400,53.171 324.400 C 52.286 324.400,51.200 325.266,51.200 325.971 C 51.200 326.207,50.930 326.400,50.600 326.400 C 50.270 326.400,50.000 326.580,50.000 326.800 C 50.000 327.020,49.627 327.200,49.171 327.200 C 48.387 327.200,47.200 328.043,47.200 328.600 C 47.200 329.015,46.095 330.000,45.629 330.000 C 45.393 330.000,45.200 330.193,45.200 330.429 C 45.200 330.895,44.215 332.000,43.800 332.000 C 43.466 332.000,42.400 333.066,42.400 333.400 C 42.400 333.734,41.334 334.800,41.000 334.800 C 40.666 334.800,39.600 335.866,39.600 336.200 C 39.600 336.615,38.495 337.600,38.029 337.600 C 37.793 337.600,37.600 337.870,37.600 338.200 C 37.600 338.530,37.420 338.800,37.200 338.800 C 36.980 338.800,36.800 339.160,36.800 339.600 C 36.800 340.044,36.533 340.400,36.200 340.400 C 35.870 340.400,35.600 340.630,35.600 340.912 C 35.600 341.193,35.240 341.683,34.800 342.000 C 34.360 342.317,34.000 342.987,34.000 343.488 C 34.000 343.990,33.807 344.400,33.571 344.400 C 32.866 344.400,32.000 345.486,32.000 346.371 C 32.000 346.827,31.820 347.200,31.600 347.200 C 31.380 347.200,31.200 347.650,31.200 348.200 C 31.200 348.750,31.007 349.200,30.771 349.200 C 30.066 349.200,29.200 350.286,29.200 351.171 C 29.200 351.641,28.940 352.000,28.600 352.000 C 28.227 352.000,28.000 352.378,28.000 353.000 C 28.000 353.550,27.820 354.000,27.600 354.000 C 27.380 354.000,27.200 354.360,27.200 354.800 C 27.200 355.240,27.020 355.600,26.800 355.600 C 26.580 355.600,26.400 356.050,26.400 356.600 C 26.400 357.222,26.173 357.600,25.800 357.600 C 25.381 357.600,25.200 358.022,25.200 359.000 C 25.200 359.770,25.020 360.400,24.800 360.400 C 24.580 360.400,24.400 360.831,24.400 361.357 C 24.400 361.884,24.130 362.418,23.800 362.545 C 23.449 362.679,23.200 363.279,23.200 363.987 C 23.200 364.654,23.020 365.200,22.800 365.200 C 22.580 365.200,22.400 366.100,22.400 367.200 C 22.400 368.300,22.220 369.200,22.000 369.200 C 21.780 369.200,21.600 370.010,21.600 371.000 C 21.600 372.333,21.444 372.800,21.000 372.800 C 20.520 372.800,20.400 373.400,20.400 375.800 C 20.400 377.533,20.231 378.800,20.000 378.800 C 19.751 378.800,19.600 381.067,19.600 384.800 L 19.600 390.800 100.000 390.800 L 180.400 390.800 180.400 384.800 C 180.400 381.067,180.249 378.800,180.000 378.800 C 179.769 378.800,179.600 377.533,179.600 375.800 C 179.600 373.400,179.480 372.800,179.000 372.800 C 178.556 372.800,178.400 372.333,178.400 371.000 C 178.400 370.010,178.220 369.200,178.000 369.200 C 177.780 369.200,177.600 368.300,177.600 367.200 C 177.600 366.100,177.420 365.200,177.200 365.200 C 176.980 365.200,176.800 364.750,176.800 364.200 C 176.800 363.578,176.573 363.200,176.200 363.200 C 175.781 363.200,175.600 362.778,175.600 361.800 C 175.600 361.030,175.420 360.400,175.200 360.400 C 174.980 360.400,174.800 359.770,174.800 359.000 C 174.800 358.230,174.620 357.600,174.400 357.600 C 174.180 357.600,174.000 357.234,174.000 356.787 C 174.000 356.341,173.730 355.871,173.400 355.745 C 173.070 355.618,172.800 355.174,172.800 354.757 C 172.800 354.341,172.620 354.000,172.400 354.000 C 172.180 354.000,172.000 353.550,172.000 353.000 C 172.000 352.378,171.773 352.000,171.400 352.000 C 171.042 352.000,170.800 351.632,170.800 351.088 C 170.800 350.587,170.440 349.917,170.000 349.600 C 169.560 349.283,169.200 348.613,169.200 348.112 C 169.200 347.568,168.958 347.200,168.600 347.200 C 168.260 347.200,168.000 346.841,168.000 346.371 C 168.000 345.486,167.134 344.400,166.429 344.400 C 166.193 344.400,166.000 343.990,166.000 343.488 C 166.000 342.987,165.640 342.317,165.200 342.000 C 164.760 341.683,164.400 341.193,164.400 340.912 C 164.400 340.630,164.207 340.400,163.971 340.400 C 163.324 340.400,162.400 339.342,162.400 338.600 C 162.400 337.858,161.476 336.800,160.829 336.800 C 160.593 336.800,160.400 336.607,160.400 336.371 C 160.400 335.905,159.415 334.800,159.000 334.800 C 158.666 334.800,157.600 333.734,157.600 333.400 C 157.600 333.066,156.534 332.000,156.200 332.000 C 155.866 332.000,154.800 330.934,154.800 330.600 C 154.800 330.185,153.695 329.200,153.229 329.200 C 152.993 329.200,152.800 329.007,152.800 328.771 C 152.800 328.124,151.742 327.200,151.000 327.200 C 150.258 327.200,149.200 326.276,149.200 325.629 C 149.200 325.393,148.930 325.200,148.600 325.200 C 148.270 325.200,148.000 325.020,148.000 324.800 C 148.000 324.580,147.550 324.400,147.000 324.400 C 146.450 324.400,146.000 324.207,146.000 323.971 C 146.000 323.324,144.942 322.400,144.200 322.400 C 143.458 322.400,142.400 321.476,142.400 320.829 C 142.400 320.593,141.950 320.400,141.400 320.400 C 140.850 320.400,140.400 320.220,140.400 320.000 C 140.400 319.780,139.950 319.600,139.400 319.600 C 138.850 319.600,138.400 319.420,138.400 319.200 C 138.400 318.980,138.040 318.800,137.600 318.800 C 137.156 318.800,136.800 318.533,136.800 318.200 C 136.800 317.827,136.422 317.600,135.800 317.600 C 135.250 317.600,134.800 317.420,134.800 317.200 C 134.800 316.980,134.350 316.800,133.800 316.800 C 133.178 316.800,132.800 316.573,132.800 316.200 C 132.800 315.827,132.422 315.600,131.800 315.600 C 131.250 315.600,130.800 315.420,130.800 315.200 C 130.800 314.980,130.170 314.800,129.400 314.800 C 128.630 314.800,128.000 314.620,128.000 314.400 C 128.000 314.180,127.550 314.000,127.000 314.000 C 126.378 314.000,126.000 313.773,126.000 313.400 C 126.000 312.956,125.533 312.800,124.200 312.800 C 123.210 312.800,122.400 312.620,122.400 312.400 C 122.400 312.180,121.770 312.000,121.000 312.000 C 120.230 312.000,119.600 311.820,119.600 311.600 C 119.600 311.378,118.533 311.200,117.200 311.200 C 115.333 311.200,114.800 311.067,114.800 310.600 C 114.800 310.109,114.111 310.000,111.000 310.000 C 108.733 310.000,107.200 309.839,107.200 309.600 C 107.200 309.348,104.533 309.200,100.000 309.200 C 95.467 309.200,92.800 309.348,92.800 309.600 M292.800 309.600 C 292.800 309.839,291.267 310.000,289.000 310.000 C 285.889 310.000,285.200 310.109,285.200 310.600 C 285.200 311.067,284.667 311.200,282.800 311.200 C 281.467 311.200,280.400 311.378,280.400 311.600 C 280.400 311.820,279.770 312.000,279.000 312.000 C 278.230 312.000,277.600 312.180,277.600 312.400 C 277.600 312.620,276.790 312.800,275.800 312.800 C 274.467 312.800,274.000 312.956,274.000 313.400 C 274.000 313.773,273.622 314.000,273.000 314.000 C 272.450 314.000,272.000 314.180,272.000 314.400 C 272.000 314.620,271.370 314.800,270.600 314.800 C 269.830 314.800,269.200 314.980,269.200 315.200 C 269.200 315.420,268.750 315.600,268.200 315.600 C 267.578 315.600,267.200 315.827,267.200 316.200 C 267.200 316.573,266.822 316.800,266.200 316.800 C 265.650 316.800,265.200 316.980,265.200 317.200 C 265.200 317.420,264.750 317.600,264.200 317.600 C 263.578 317.600,263.200 317.827,263.200 318.200 C 263.200 318.533,262.844 318.800,262.400 318.800 C 261.960 318.800,261.600 318.980,261.600 319.200 C 261.600 319.420,261.150 319.600,260.600 319.600 C 260.050 319.600,259.600 319.780,259.600 320.000 C 259.600 320.220,259.150 320.400,258.600 320.400 C 258.050 320.400,257.600 320.593,257.600 320.829 C 257.600 321.476,256.542 322.400,255.800 322.400 C 255.058 322.400,254.000 323.324,254.000 323.971 C 254.000 324.207,253.627 324.400,253.171 324.400 C 252.286 324.400,251.200 325.266,251.200 325.971 C 251.200 326.207,250.930 326.400,250.600 326.400 C 250.270 326.400,250.000 326.580,250.000 326.800 C 250.000 327.020,249.627 327.200,249.171 327.200 C 248.387 327.200,247.200 328.043,247.200 328.600 C 247.200 329.015,246.095 330.000,245.629 330.000 C 245.393 330.000,245.200 330.193,245.200 330.429 C 245.200 330.895,244.215 332.000,243.800 332.000 C 243.466 332.000,242.400 333.066,242.400 333.400 C 242.400 333.734,241.334 334.800,241.000 334.800 C 240.666 334.800,239.600 335.866,239.600 336.200 C 239.600 336.615,238.495 337.600,238.029 337.600 C 237.793 337.600,237.600 337.870,237.600 338.200 C 237.600 338.530,237.420 338.800,237.200 338.800 C 236.980 338.800,236.800 339.160,236.800 339.600 C 236.800 340.044,236.533 340.400,236.200 340.400 C 235.870 340.400,235.600 340.630,235.600 340.912 C 235.600 341.193,235.240 341.683,234.800 342.000 C 234.360 342.317,234.000 342.987,234.000 343.488 C 234.000 343.990,233.807 344.400,233.571 344.400 C 232.866 344.400,232.000 345.486,232.000 346.371 C 232.000 346.827,231.820 347.200,231.600 347.200 C 231.380 347.200,231.200 347.650,231.200 348.200 C 231.200 348.750,231.007 349.200,230.771 349.200 C 230.066 349.200,229.200 350.286,229.200 351.171 C 229.200 351.641,228.940 352.000,228.600 352.000 C 228.227 352.000,228.000 352.378,228.000 353.000 C 228.000 353.550,227.820 354.000,227.600 354.000 C 227.380 354.000,227.200 354.360,227.200 354.800 C 227.200 355.240,227.020 355.600,226.800 355.600 C 226.580 355.600,226.400 356.050,226.400 356.600 C 226.400 357.222,226.173 357.600,225.800 357.600 C 225.381 357.600,225.200 358.022,225.200 359.000 C 225.200 359.770,225.020 360.400,224.800 360.400 C 224.580 360.400,224.400 360.831,224.400 361.357 C 224.400 361.884,224.130 362.418,223.800 362.545 C 223.449 362.679,223.200 363.279,223.200 363.987 C 223.200 364.654,223.020 365.200,222.800 365.200 C 222.580 365.200,222.400 366.100,222.400 367.200 C 222.400 368.300,222.220 369.200,222.000 369.200 C 221.780 369.200,221.600 370.010,221.600 371.000 C 221.600 372.333,221.444 372.800,221.000 372.800 C 220.520 372.800,220.400 373.400,220.400 375.800 C 220.400 377.533,220.231 378.800,220.000 378.800 C 219.751 378.800,219.600 381.067,219.600 384.800 L 219.600 390.800 300.000 390.800 L 380.400 390.800 380.400 384.800 C 380.400 381.067,380.249 378.800,380.000 378.800 C 379.769 378.800,379.600 377.533,379.600 375.800 C 379.600 373.400,379.480 372.800,379.000 372.800 C 378.556 372.800,378.400 372.333,378.400 371.000 C 378.400 370.010,378.220 369.200,378.000 369.200 C 377.780 369.200,377.600 368.300,377.600 367.200 C 377.600 366.100,377.420 365.200,377.200 365.200 C 376.980 365.200,376.800 364.750,376.800 364.200 C 376.800 363.578,376.573 363.200,376.200 363.200 C 375.781 363.200,375.600 362.778,375.600 361.800 C 375.600 361.030,375.420 360.400,375.200 360.400 C 374.980 360.400,374.800 359.770,374.800 359.000 C 374.800 358.230,374.620 357.600,374.400 357.600 C 374.180 357.600,374.000 357.234,374.000 356.787 C 374.000 356.341,373.730 355.871,373.400 355.745 C 373.070 355.618,372.800 355.174,372.800 354.757 C 372.800 354.341,372.620 354.000,372.400 354.000 C 372.180 354.000,372.000 353.550,372.000 353.000 C 372.000 352.378,371.773 352.000,371.400 352.000 C 371.042 352.000,370.800 351.632,370.800 351.088 C 370.800 350.587,370.440 349.917,370.000 349.600 C 369.560 349.283,369.200 348.613,369.200 348.112 C 369.200 347.568,368.958 347.200,368.600 347.200 C 368.260 347.200,368.000 346.841,368.000 346.371 C 368.000 345.486,367.134 344.400,366.429 344.400 C 366.193 344.400,366.000 343.990,366.000 343.488 C 366.000 342.987,365.640 342.317,365.200 342.000 C 364.760 341.683,364.400 341.193,364.400 340.912 C 364.400 340.630,364.207 340.400,363.971 340.400 C 363.324 340.400,362.400 339.342,362.400 338.600 C 362.400 337.858,361.476 336.800,360.829 336.800 C 360.593 336.800,360.400 336.607,360.400 336.371 C 360.400 335.905,359.415 334.800,359.000 334.800 C 358.666 334.800,357.600 333.734,357.600 333.400 C 357.600 333.066,356.534 332.000,356.200 332.000 C 355.866 332.000,354.800 330.934,354.800 330.600 C 354.800 330.185,353.695 329.200,353.229 329.200 C 352.993 329.200,352.800 329.007,352.800 328.771 C 352.800 328.124,351.742 327.200,351.000 327.200 C 350.258 327.200,349.200 326.276,349.200 325.629 C 349.200 325.393,348.930 325.200,348.600 325.200 C 348.270 325.200,348.000 325.020,348.000 324.800 C 348.000 324.580,347.550 324.400,347.000 324.400 C 346.450 324.400,346.000 324.207,346.000 323.971 C 346.000 323.324,344.942 322.400,344.200 322.400 C 343.458 322.400,342.400 321.476,342.400 320.829 C 342.400 320.593,341.950 320.400,341.400 320.400 C 340.850 320.400,340.400 320.220,340.400 320.000 C 340.400 319.780,339.950 319.600,339.400 319.600 C 338.850 319.600,338.400 319.420,338.400 319.200 C 338.400 318.980,338.040 318.800,337.600 318.800 C 337.156 318.800,336.800 318.533,336.800 318.200 C 336.800 317.827,336.422 317.600,335.800 317.600 C 335.250 317.600,334.800 317.420,334.800 317.200 C 334.800 316.980,334.350 316.800,333.800 316.800 C 333.178 316.800,332.800 316.573,332.800 316.200 C 332.800 315.827,332.422 315.600,331.800 315.600 C 331.250 315.600,330.800 315.420,330.800 315.200 C 330.800 314.980,330.170 314.800,329.400 314.800 C 328.630 314.800,328.000 314.620,328.000 314.400 C 328.000 314.180,327.550 314.000,327.000 314.000 C 326.378 314.000,326.000 313.773,326.000 313.400 C 326.000 312.956,325.533 312.800,324.200 312.800 C 323.210 312.800,322.400 312.620,322.400 312.400 C 322.400 312.180,321.770 312.000,321.000 312.000 C 320.230 312.000,319.600 311.820,319.600 311.600 C 319.600 311.378,318.533 311.200,317.200 311.200 C 315.333 311.200,314.800 311.067,314.800 310.600 C 314.800 310.109,314.111 310.000,311.000 310.000 C 308.733 310.000,307.200 309.839,307.200 309.600 C 307.200 309.348,304.533 309.200,300.000 309.200 C 295.467 309.200,292.800 309.348,292.800 309.600 M111.200 316.009 C 121.248 317.742,124.753 318.864,133.866 323.271 C 136.727 324.655,144.247 329.258,144.800 329.964 C 144.910 330.104,146.170 331.147,147.600 332.280 C 153.574 337.017,164.800 350.374,164.800 352.746 C 164.800 352.959,164.938 353.193,165.108 353.267 C 165.553 353.460,169.600 361.815,169.600 362.541 C 169.600 362.878,169.780 363.264,170.000 363.400 C 170.220 363.536,170.400 364.051,170.400 364.544 C 170.400 365.037,170.570 365.611,170.777 365.820 C 170.984 366.029,171.330 366.920,171.545 367.800 C 171.760 368.680,172.201 370.480,172.525 371.800 C 173.885 377.347,174.410 380.333,174.405 382.500 L 174.400 384.800 99.943 384.800 L 25.486 384.800 25.708 381.700 C 25.830 379.995,26.122 377.790,26.357 376.800 C 27.934 370.158,28.869 366.493,29.165 365.800 C 30.469 362.746,31.602 359.723,31.601 359.300 C 31.601 359.025,31.780 358.800,32.000 358.800 C 32.220 358.800,32.397 358.575,32.394 358.300 C 32.388 357.807,34.394 353.588,34.819 353.200 C 34.940 353.090,35.558 352.100,36.193 351.000 C 43.573 338.220,55.658 327.851,71.400 320.794 C 82.248 315.930,99.034 313.912,111.200 316.009 M311.200 316.009 C 321.248 317.742,324.753 318.864,333.866 323.271 C 336.727 324.655,344.247 329.258,344.800 329.964 C 344.910 330.104,346.170 331.147,347.600 332.280 C 353.574 337.017,364.800 350.374,364.800 352.746 C 364.800 352.959,364.938 353.193,365.108 353.267 C 365.553 353.460,369.600 361.815,369.600 362.541 C 369.600 362.878,369.780 363.264,370.000 363.400 C 370.220 363.536,370.400 364.051,370.400 364.544 C 370.400 365.037,370.570 365.611,370.777 365.820 C 370.984 366.029,371.330 366.920,371.545 367.800 C 371.760 368.680,372.201 370.480,372.525 371.800 C 373.885 377.347,374.410 380.333,374.405 382.500 L 374.400 384.800 299.943 384.800 L 225.486 384.800 225.708 381.700 C 225.830 379.995,226.122 377.790,226.357 376.800 C 227.934 370.158,228.869 366.493,229.165 365.800 C 230.469 362.746,231.602 359.723,231.601 359.300 C 231.601 359.025,231.780 358.800,232.000 358.800 C 232.220 358.800,232.397 358.575,232.394 358.300 C 232.388 357.807,234.394 353.588,234.819 353.200 C 234.940 353.090,235.558 352.100,236.193 351.000 C 243.573 338.220,255.658 327.851,271.400 320.794 C 282.248 315.930,299.034 313.912,311.200 316.009 " stroke="none" fill="#6a8a8c" fill-rule="evenodd"></path><path id="path3" d="M94.800 205.411 C 54.907 210.732,40.920 260.289,72.244 285.327 C 73.809 286.577,75.272 287.600,75.495 287.600 C 75.719 287.600,76.105 287.844,76.353 288.143 C 78.123 290.277,88.335 293.828,95.000 294.628 C 126.313 298.387,151.930 268.371,143.330 238.000 C 138.274 220.144,123.673 207.790,104.800 205.399 C 99.559 204.735,99.869 204.735,94.800 205.411 M294.800 205.411 C 254.907 210.732,240.920 260.289,272.244 285.327 C 273.809 286.577,275.272 287.600,275.495 287.600 C 275.719 287.600,276.105 287.844,276.353 288.143 C 278.123 290.277,288.335 293.828,295.000 294.628 C 326.313 298.387,351.930 268.371,343.330 238.000 C 338.274 220.144,323.673 207.790,304.800 205.399 C 299.559 204.735,299.869 204.735,294.800 205.411 " stroke="none" fill="#fbeba3" fill-rule="evenodd"></path><path id="path4" d="M297.400 22.400 C 298.259 23.280,299.052 24.000,299.162 24.000 C 299.272 24.000,298.659 23.280,297.800 22.400 C 296.941 21.520,296.148 20.800,296.038 20.800 C 295.928 20.800,296.541 21.520,297.400 22.400 M102.175 22.500 L 101.000 23.800 102.300 22.625 C 103.015 21.979,103.600 21.394,103.600 21.325 C 103.600 21.016,103.270 21.288,102.175 22.500 M88.400 316.066 C 78.272 317.919,75.169 318.910,66.800 322.964 C 54.496 328.924,42.703 339.727,36.193 351.000 C 35.558 352.100,34.940 353.090,34.819 353.200 C 34.394 353.588,32.388 357.807,32.394 358.300 C 32.397 358.575,32.220 358.800,32.000 358.800 C 31.780 358.800,31.601 359.025,31.601 359.300 C 31.602 359.723,30.469 362.746,29.165 365.800 C 28.869 366.493,27.934 370.158,26.357 376.800 C 26.122 377.790,25.830 379.995,25.708 381.700 L 25.486 384.800 99.943 384.800 L 174.400 384.800 174.405 382.500 C 174.410 380.333,173.885 377.347,172.525 371.800 C 172.201 370.480,171.760 368.680,171.545 367.800 C 171.330 366.920,170.984 366.029,170.777 365.820 C 170.570 365.611,170.400 365.037,170.400 364.544 C 170.400 364.051,170.220 363.536,170.000 363.400 C 169.780 363.264,169.600 362.878,169.600 362.541 C 169.600 361.815,165.553 353.460,165.108 353.267 C 164.938 353.193,164.800 352.959,164.800 352.746 C 164.800 350.374,153.574 337.017,147.600 332.280 C 146.170 331.147,144.910 330.104,144.800 329.964 C 143.778 328.659,134.903 323.623,128.800 320.884 C 117.655 315.883,100.550 313.844,88.400 316.066 M288.400 316.066 C 278.272 317.919,275.169 318.910,266.800 322.964 C 254.496 328.924,242.703 339.727,236.193 351.000 C 235.558 352.100,234.940 353.090,234.819 353.200 C 234.394 353.588,232.388 357.807,232.394 358.300 C 232.397 358.575,232.220 358.800,232.000 358.800 C 231.780 358.800,231.601 359.025,231.601 359.300 C 231.602 359.723,230.469 362.746,229.165 365.800 C 228.869 366.493,227.934 370.158,226.357 376.800 C 226.122 377.790,225.830 379.995,225.708 381.700 L 225.486 384.800 299.943 384.800 L 374.400 384.800 374.405 382.500 C 374.410 380.333,373.885 377.347,372.525 371.800 C 372.201 370.480,371.760 368.680,371.545 367.800 C 371.330 366.920,370.984 366.029,370.777 365.820 C 370.570 365.611,370.400 365.037,370.400 364.544 C 370.400 364.051,370.220 363.536,370.000 363.400 C 369.780 363.264,369.600 362.878,369.600 362.541 C 369.600 361.815,365.553 353.460,365.108 353.267 C 364.938 353.193,364.800 352.959,364.800 352.746 C 364.800 350.374,353.574 337.017,347.600 332.280 C 346.170 331.147,344.910 330.104,344.800 329.964 C 343.778 328.659,334.903 323.623,328.800 320.884 C 317.655 315.883,300.550 313.844,288.400 316.066 " stroke="none" fill="#acc4d4" fill-rule="evenodd"></path></g></svg>