<svg id="svg" xmlns="http://www.w3.org/2000/svg" xmlns:xlink="http://www.w3.org/1999/xlink" width="400" height="383.59999999999997" viewBox="0, 0, 400,383.59999999999997"><g id="svgg"><path id="path0" d="M199.847 8.750 C 198.850 11.803,196.894 17.810,195.501 22.100 C 194.108 26.390,192.263 32.060,191.401 34.700 C 190.538 37.340,189.234 41.345,188.502 43.600 C 187.265 47.413,186.589 49.492,183.135 60.100 C 181.552 64.963,177.014 78.923,175.365 84.000 C 174.704 86.035,173.503 89.725,172.696 92.200 C 170.489 98.965,168.569 104.864,167.196 109.100 C 165.962 112.904,164.426 117.620,161.428 126.800 C 160.549 129.495,158.693 135.188,157.306 139.450 L 154.784 147.200 78.992 147.200 C 37.306 147.200,3.203 147.268,3.207 147.350 C 3.211 147.433,4.217 148.220,5.442 149.100 C 6.667 149.980,9.476 152.011,11.685 153.614 C 21.555 160.778,26.246 164.181,31.000 167.626 C 38.893 173.348,53.960 184.276,59.500 188.299 C 62.250 190.296,66.840 193.625,69.700 195.696 C 72.560 197.768,76.655 200.738,78.800 202.296 C 83.369 205.616,90.795 211.004,98.100 216.299 C 100.960 218.372,105.595 221.733,108.400 223.768 C 111.205 225.804,115.795 229.131,118.600 231.163 C 126.191 236.661,125.848 236.390,125.692 236.768 C 125.515 237.195,124.970 238.852,122.001 248.000 C 120.662 252.125,118.906 257.525,118.098 260.000 C 114.436 271.216,113.269 274.799,110.900 282.100 C 109.508 286.390,107.663 292.060,106.799 294.700 C 105.935 297.340,104.090 303.010,102.699 307.300 C 101.307 311.590,99.462 317.260,98.599 319.900 C 97.735 322.540,95.890 328.210,94.498 332.500 C 93.107 336.790,91.307 342.325,90.498 344.800 C 88.706 350.284,84.204 364.145,82.572 369.200 C 81.915 371.235,81.255 373.260,81.105 373.700 C 80.064 376.758,78.989 380.256,79.068 380.334 C 79.119 380.386,81.982 378.381,85.431 375.878 C 91.517 371.461,97.343 367.231,114.600 354.698 C 119.165 351.383,126.230 346.254,130.300 343.300 C 134.370 340.347,140.940 335.577,144.900 332.700 C 153.844 326.202,166.582 316.953,176.300 309.899 C 180.370 306.945,186.670 302.367,190.300 299.727 C 193.930 297.087,197.987 294.145,199.316 293.189 L 201.731 291.452 205.216 293.989 C 207.132 295.385,211.040 298.223,213.900 300.296 C 216.760 302.369,220.855 305.340,223.000 306.898 C 228.067 310.578,235.803 316.189,242.200 320.826 C 250.093 326.548,265.160 337.476,270.700 341.499 C 273.450 343.496,278.040 346.825,280.900 348.896 C 283.760 350.968,287.855 353.938,290.000 355.496 C 294.571 358.818,301.999 364.207,309.300 369.499 C 312.160 371.572,316.659 374.839,319.298 376.759 C 324.222 380.341,324.751 380.685,324.562 380.185 C 324.503 380.028,323.987 378.460,323.415 376.700 C 322.843 374.940,321.713 371.475,320.905 369.000 C 320.097 366.525,318.882 362.790,318.204 360.700 C 316.831 356.464,314.911 350.565,312.704 343.800 C 311.897 341.325,310.696 337.635,310.035 335.600 C 305.430 321.417,303.385 315.128,302.102 311.200 C 301.293 308.725,299.493 303.190,298.102 298.900 C 296.710 294.610,294.865 288.940,294.001 286.300 C 293.138 283.660,291.293 277.990,289.901 273.700 C 288.510 269.410,286.665 263.740,285.801 261.100 C 284.190 256.176,279.806 242.696,278.487 238.613 L 277.749 236.325 278.224 235.939 C 278.769 235.497,283.996 231.694,316.500 208.098 C 320.570 205.143,327.635 200.013,332.200 196.698 C 336.765 193.383,343.830 188.253,347.900 185.298 C 351.970 182.343,359.035 177.213,363.600 173.898 C 374.549 165.946,384.523 158.708,393.042 152.532 C 396.860 149.765,399.987 147.433,399.992 147.350 C 399.996 147.268,365.964 147.178,324.364 147.150 L 248.727 147.100 247.350 142.900 C 245.535 137.365,243.328 130.601,241.804 125.900 C 240.431 121.664,238.511 115.765,236.304 109.000 C 235.497 106.525,234.296 102.835,233.635 100.800 C 229.659 88.553,227.134 80.799,226.896 80.100 C 226.745 79.660,226.085 77.635,225.428 75.600 C 223.369 69.223,219.238 56.504,217.601 51.500 C 216.738 48.860,214.893 43.190,213.501 38.900 C 212.110 34.610,210.265 28.940,209.401 26.300 C 207.247 19.717,202.933 6.418,202.377 4.650 C 202.126 3.853,201.862 3.200,201.790 3.200 C 201.718 3.200,200.844 5.697,199.847 8.750 " stroke="none" fill="#acacac" fill-rule="evenodd"></path><path id="path1" d="" stroke="none" fill="#b0acac" fill-rule="evenodd"></path><path id="path2" d="" stroke="none" fill="#b0acac" fill-rule="evenodd"></path><path id="path3" d="" stroke="none" fill="#b0acac" fill-rule="evenodd"></path><path id="path4" d="" stroke="none" fill="#b0acac" fill-rule="evenodd"></path></g></svg>